<?xml version="1.0" encoding="UTF-8"?>
<!DOCTYPE svg PUBLIC "-//W3C//DTD SVG 1.1//EN" "http://www.w3.org/Graphics/SVG/1.1/DTD/svg11.dtd">
<!-- Creator: CorelDRAW 2017 -->
<svg xmlns="http://www.w3.org/2000/svg" xml:space="preserve" width="1299px" height="1181px" version="1.1" style="shape-rendering:geometricPrecision; text-rendering:geometricPrecision; image-rendering:optimizeQuality; fill-rule:evenodd; clip-rule:evenodd"
viewBox="0 0 1299 1181"
 xmlns:xlink="http://www.w3.org/1999/xlink">
 <defs>
  <style type="text/css">
   <![CDATA[
    .fil0 {fill:black}
   ]]>
  </style>
 </defs>
 <g id="Layer_x0020_1">
  <metadata id="CorelCorpID_0Corel-Layer"/>
  <path class="fil0" d="M880 1010c1,-11 3,-5 7,-16l7 0c-1,-5 -2,-4 2,-3 -2,-4 -3,-4 2,-3 -1,-4 -2,-3 2,-2 2,-2 -2,-2 8,-3 2,-2 1,-2 6,-2 5,-1 5,0 9,1 -1,-5 -1,-3 3,-2 11,5 -1,-7 2,2 3,-1 1,-2 7,-1 13,2 3,-1 7,4 5,-1 0,-3 6,1 4,2 2,1 4,4 6,1 3,-1 8,4 47,42 -10,120 -67,79 -8,-6 -12,-11 -13,-18 -6,0 -3,-4 -2,-8 -3,-1 -5,6 -4,-18 0,-18 3,-15 7,-18zm-327 46c-1,6 1,2 -3,7 -3,5 -3,3 -5,5 1,4 2,4 -2,3 2,5 2,3 -4,2 -13,7 -24,16 -46,10 -8,-2 -14,-6 -20,-11 -9,-7 -8,-9 -14,-17 -4,-3 -4,4 -4,-5 -5,-5 -5,-27 0,-39 4,-8 0,-1 3,-4 -2,-5 -3,-5 2,-3 -2,-5 -2,-4 2,-3 2,-8 6,-11 14,-11 -1,-4 -1,-3 3,-2 -1,-4 -2,-3 3,-2 -1,-5 4,-3 9,-3 -1,-5 5,-4 10,-4 1,0 5,0 6,0 5,1 1,-1 4,2 3,0 3,-1 8,-1 13,2 4,0 7,3 6,-2 5,-3 5,3 10,7 20,12 24,21 5,0 3,-1 2,4 0,0 1,0 1,1 0,1 1,1 1,1 1,3 1,2 1,5 0,1 1,1 1,2 0,1 1,1 1,2 1,4 1,2 1,7l-8 28zm123 -417c-2,-5 -2,-4 3,-3l175 0c5,-1 5,-3 4,2 4,11 2,30 2,43 0,9 4,37 -4,42 -2,2 0,2 -5,3 -1,0 -3,1 -4,1 -3,0 -9,0 -12,0 -8,0 -16,0 -23,0 -16,0 -31,0 -47,0 -16,0 -31,0 -47,0 -17,0 -38,3 -41,-4 -4,-3 -2,1 -3,-8l1 -75zm367 15c1,5 3,4 -3,4 -1,6 0,2 -4,4 2,5 3,4 -2,4l-2 15c0,6 2,5 -3,4 0,3 3,10 -3,8 0,8 -1,10 -3,16 -1,2 -2,6 -3,7 -3,5 0,1 -3,4 -2,3 5,3 -20,3 -7,0 -14,0 -21,0 -15,0 -30,-2 -45,1 -6,1 -5,3 -3,-3 -4,-11 -1,-47 -1,-64 0,-3 0,-9 0,-12 1,-10 0,-5 3,-7 3,-3 -8,-2 7,-3 20,0 94,-3 109,2 1,7 -1,11 -3,16zm-437 -14c3,4 2,0 2,8 0,3 0,8 0,12 0,8 4,60 -3,61 -2,5 1,3 -10,3 -16,1 -75,2 -82,-2 -5,1 -3,2 -3,-3l1 -7c-5,-2 -4,0 -3,-9 -5,1 -3,2 -3,-4l-16 -46c-4,0 -3,1 -2,-4 -2,-2 -1,2 -4,-6 -2,-5 -1,-3 -1,-7 12,-4 74,-2 95,-2 5,0 12,0 17,0 13,1 10,2 11,4zm71 -175c-1,-5 -2,-4 3,-3 23,2 156,3 174,-1 5,-1 5,-3 4,2 2,5 7,94 -2,102 -10,6 -73,2 -91,3l-82 0c-11,-2 -3,0 -6,-3 -7,-8 -3,-37 -3,-50 0,-14 -4,-37 2,-49zm-69 -1c0,1 1,1 1,2 0,0 1,1 1,2l1 23c0,9 0,17 0,26l0 40c-1,9 0,4 -4,9 -6,4 -139,4 -146,0 -6,2 -5,3 -3,-2 -5,2 -3,2 -2,-4 -1,-2 -4,-9 -6,-13 0,0 -7,-5 -2,-9 0,0 -8,4 -2,-9 -5,1 -4,2 -2,-3 0,0 -2,-1 -4,-4 0,-1 -1,-3 -2,-4 -2,-7 -1,-4 0,-8 0,0 -8,5 -3,-9 -5,1 -4,2 -2,-4l1 -5c-5,0 -5,1 -3,-3l-5 -6c-7,-11 -5,-13 -4,-21 1,-1 0,-1 7,-2l157 0c31,0 19,0 22,4zm491 14c2,5 3,4 -2,4 -1,12 -15,42 -15,54 1,6 3,6 -2,4 0,4 1,1 -1,5 0,0 -1,2 -1,2 0,0 -1,1 -1,1 0,3 2,9 -3,9 0,9 0,4 -2,5 -4,4 9,3 -7,4 -23,0 -45,0 -68,0l-61 -1c-7,-2 -2,2 -4,-4 -6,-5 -3,-82 -3,-90 0,-12 0,-4 3,-6 3,-4 -7,-3 6,-3 22,0 156,-3 165,2 0,9 0,4 -3,6 0,3 3,9 -2,8zm-243 -176c3,2 3,-3 4,9l0 72c-3,13 0,4 -5,6 -6,6 -113,2 -137,2 -32,0 -42,6 -44,-11l0 -35c0,-46 -4,-47 23,-47l117 0c13,0 38,-2 41,3zm292 21c2,5 3,4 -2,4l-3 12c0,6 2,5 -3,4 0,6 0,8 -2,13 -3,9 0,4 -4,7 1,5 2,4 -2,3 1,4 4,9 -2,8 0,4 2,10 -3,8l-1 4c-2,6 1,4 -9,4l-187 -1c-3,-11 -2,-76 0,-89l222 1c1,8 2,12 -4,21zm-779 -22c0,0 1,-1 1,-1l26 -2c55,0 150,-2 198,0 8,0 8,-2 11,3 3,2 3,-3 4,9l0 35c0,15 1,30 -1,44 -15,4 -209,3 -211,-1 -4,-2 -2,5 -5,-4 -1,-2 -5,4 -2,-10l-2 -3c-7,-10 -5,-11 -4,-16 -3,-4 -5,9 -3,-8 -4,0 -3,1 -1,-4l2 -8c-3,-3 0,2 -4,-6 0,-1 -1,-4 -2,-5 -3,-8 0,-5 -5,-10 -5,0 -4,1 -3,-3 -3,-4 -3,8 -2,-6 0,-12 -1,-3 4,-5zm-296 -258c1,4 2,3 -2,2 1,4 2,3 -2,2 1,4 2,3 -2,2 -1,9 0,3 -3,4 2,5 2,4 -3,2l-1 27c5,-1 5,-3 3,1 5,-2 4,-2 2,3l3 2c15,15 7,2 17,13 5,-2 4,-3 4,3 7,4 40,17 47,17 4,1 8,3 12,4 2,1 5,2 7,3 4,2 2,1 5,4l72 28c16,3 11,-1 24,34l9 26c3,8 0,-1 2,8 1,11 6,19 9,26 3,9 5,17 8,26 6,17 12,34 17,50 6,6 11,21 13,29l9 31 2 8c3,3 3,-1 7,12 1,2 1,3 2,7l23 66c4,8 3,6 4,13 0,4 0,6 1,9 0,1 1,1 1,2l3 5c2,4 1,3 2,5l12 36 0 -1c0,0 1,1 1,1 0,0 1,1 1,1l9 24c0,0 0,1 0,2l16 48c7,19 6,9 9,28 1,6 6,23 9,30 2,7 9,22 10,29 20,22 -6,23 -13,42l-1 4c-2,7 -4,11 -6,16 -3,9 -3,11 -8,17 0,13 -10,24 -12,38 -2,9 -4,13 -7,22 -2,5 -2,7 -4,11l-6 8 -9 28c-3,12 -9,19 -1,34 1,2 1,2 3,4 18,20 42,3 50,13 6,7 -2,6 -9,21l-7 10c-7,16 -14,38 -10,57 3,14 2,19 7,31 2,6 10,18 11,23 14,12 19,22 37,30l14 11c17,-2 6,7 41,6 41,0 22,-7 41,-7l46 -35 17 -24c2,-14 9,-19 9,-37 0,-20 -1,-26 -4,-42 -1,0 -1,-2 -2,-1l-3 -3c0,0 -1,-1 -1,-2l-20 -33c-4,-10 1,-6 1,-7 3,-3 -2,-2 4,-3l238 0c11,2 4,1 7,3 1,1 4,-6 2,6 0,1 -3,5 -4,6l-6 8c0,1 -1,1 -1,2l-3 3 -2 3c-13,48 -19,66 9,114 4,7 5,7 11,13l13 14c4,1 14,8 22,12 50,23 71,5 83,3 9,-8 10,-6 19,-11l45 -47c28,-52 -9,-112 -9,-112 -5,-3 0,1 -5,-3 -2,-2 -2,-2 -4,-4 -2,-3 -2,-2 -3,-5 10,-7 37,-3 51,-3 9,-10 16,-9 16,-28 0,-12 -5,-20 -17,-24 -22,-7 -59,-3 -86,-3l-357 0c-30,0 -156,4 -176,-1 -2,-9 5,-30 13,-39 1,-2 2,-5 2,-7 1,-2 1,-5 2,-8l17 -46c13,-2 22,2 37,2 12,0 25,0 37,0l380 0c26,0 51,0 77,0 36,0 25,4 51,-4l14 -4 4 -6c0,0 1,-1 1,-2 8,-15 7,-16 11,-24 0,0 1,-1 1,-1 0,-1 1,-1 1,-1l27 -86c1,-3 2,-6 3,-9l113 -350c4,-16 11,-33 11,-43 0,-51 -72,-37 -109,-36 -262,3 -527,1 -790,0 -1,-12 -9,-22 -10,-34 -3,-3 -2,0 -4,-5 0,-1 -2,-5 -2,-5 -2,-6 -1,-5 -2,-11l-15 -44c0,0 0,-1 -1,-1 0,0 -1,-1 -1,-2 -10,-22 -22,-25 -45,-31 -5,-1 -5,0 -12,-3 0,0 -4,-2 -5,-3 -3,-2 -1,-1 -4,-4 -9,-1 -118,-46 -123,-46 -5,1 -5,3 -4,-2 -13,1 -3,-1 -14,-3 -4,-1 -13,0 -18,0 -3,5 -3,5 -10,7z"/>
 </g>
</svg>
