<?xml version="1.0" encoding="UTF-8"?>
<!DOCTYPE svg PUBLIC "-//W3C//DTD SVG 1.1//EN" "http://www.w3.org/Graphics/SVG/1.1/DTD/svg11.dtd">
<!-- Creator: CorelDRAW 2017 -->
<svg xmlns="http://www.w3.org/2000/svg" xml:space="preserve" width="3508px" height="1240px" version="1.1" style="shape-rendering:geometricPrecision; text-rendering:geometricPrecision; image-rendering:optimizeQuality; fill-rule:evenodd; clip-rule:evenodd"
viewBox="0 0 3508 1240"
 xmlns:xlink="http://www.w3.org/1999/xlink">
 <defs>
  <style type="text/css">
   <![CDATA[
    .fil0 {fill:yellow;fill-opacity:0.600000}
   ]]>
  </style>
 </defs>
 <g id="Layer_x0020_1">
  <metadata id="CorelCorpID_0Corel-Layer"/>
  <path class="fil0" d="M2790 0c47,79 62,164 47,258 -17,104 -50,184 -98,243 -55,67 -121,93 -199,80 -50,-8 -89,-33 -120,-76 -31,-42 -42,-88 -34,-137 8,-48 23,-81 44,-99 7,-5 11,-7 14,-6 8,1 12,10 13,24 3,20 12,38 26,53 14,16 39,26 74,32 32,5 61,-7 87,-38 26,-30 42,-66 49,-105 13,-78 5,-147 -23,-207 -4,-8 -8,-15 -12,-22l133 0zm717 1186c-33,13 -69,16 -107,10 -60,-10 -105,-47 -135,-112 -27,-60 -35,-125 -23,-195 11,-67 33,-121 66,-161 40,-50 89,-70 145,-61 20,3 38,11 53,23l0 114c-23,-3 -43,2 -60,14 -23,16 -38,46 -46,90 -5,28 1,54 17,79 16,24 38,38 64,42 8,1 16,2 24,1l0 156zm-968 20c-173,-29 -303,-128 -388,-296 -81,-158 -105,-334 -73,-528 26,-156 72,-284 138,-381l113 0c-15,17 -29,36 -43,57 -57,91 -97,204 -120,337 -23,139 -12,266 33,381 53,135 142,213 268,234 125,21 225,-9 301,-89 46,-50 102,-150 167,-300 35,-87 70,-173 105,-258 44,-96 92,-164 144,-204 67,-52 152,-70 256,-52 24,4 47,11 69,20l0 156c-13,-5 -27,-9 -41,-12 -70,-12 -130,10 -180,65 -32,34 -88,151 -170,351 -51,123 -96,218 -135,282 -54,90 -114,155 -178,194 -75,46 -163,61 -264,44zm-1533 -1031c1,3 2,2 -1,2 1,3 2,2 -1,2 1,3 2,2 -1,2 1,6 1,2 -1,3 2,3 2,2 -1,2l3 18c3,-1 3,-3 2,0 3,-2 2,-2 2,1l2 1c12,8 5,1 13,7 3,-2 2,-2 3,2 6,2 29,6 35,5 3,0 6,1 9,1 1,0 4,0 5,1 3,1 2,1 4,2l53 9c11,0 8,-2 21,20l10 17c3,5 0,-1 3,5 2,7 7,12 10,16 3,5 6,11 9,17 7,11 13,22 18,32 5,3 10,13 13,18l10 20 3 5c2,1 2,-1 6,7 1,2 1,2 2,4l25 42c4,5 3,4 5,8 1,3 1,4 2,6 0,0 1,1 1,1l3 3c2,2 1,2 2,3l13 23 0 0c0,0 1,1 1,1 0,0 1,1 1,1l10 15c0,0 0,1 1,1l18 31c7,12 6,6 10,18 1,4 8,15 10,19 3,5 9,14 11,18 17,12 -1,17 -3,31l0 3c-1,5 -1,8 -2,12 -1,7 0,8 -3,13 2,9 -3,18 -3,28 0,6 -1,10 -1,16 0,4 0,5 -1,8l-3 6 -2 21c0,9 -3,15 4,23 1,1 1,1 2,2 16,11 29,-4 36,1 5,4 0,5 -3,16l-3 7c-2,12 -4,28 2,40 4,9 4,13 9,20 2,3 10,11 11,14 11,6 16,12 29,15l11 5c11,-4 5,4 29,-2 28,-6 14,-8 27,-10l26 -30 8 -19c-1,-10 3,-14 1,-26 -3,-13 -5,-18 -9,-28 0,0 -1,-1 -1,-1l-2 -2c0,0 -1,-1 -1,-1l-18 -20c-4,-7 0,-4 0,-5 1,-2 -1,-1 2,-3l162 -34c8,0 3,0 5,1 1,1 2,-4 2,4 0,1 -1,4 -2,5l-3 7c0,0 0,1 -1,1l-2 3 -1 2c-2,35 -3,48 23,76 4,4 5,4 9,7l11 8c3,0 11,4 17,5 37,9 49,-7 57,-10 5,-7 6,-5 11,-10l24 -39c12,-40 -22,-75 -22,-75 -4,-2 0,0 -4,-2 -2,-1 -1,-1 -3,-2 -2,-1 -2,-1 -3,-3 6,-6 24,-7 34,-10 4,-8 9,-8 7,-22 -2,-8 -6,-13 -15,-14 -16,-2 -40,7 -59,10l-243 51c-21,5 -106,25 -120,24 -3,-6 -1,-21 3,-28 0,-2 1,-4 1,-5 0,-2 0,-4 0,-6l5 -34c9,-3 15,-2 26,-4 8,-2 17,-3 25,-5l259 -54c18,-3 35,-8 52,-11 25,-5 18,-1 35,-10l9 -5 2 -5c0,0 0,-1 0,-1 4,-11 2,-12 4,-18 0,0 1,-1 1,-1 0,-1 0,-1 1,-1l6 -63c0,-2 0,-5 1,-7l27 -255c1,-11 3,-24 1,-31 -7,-35 -54,-15 -80,-9 -179,39 -359,76 -539,113 -3,-8 -9,-14 -12,-22 -3,-2 -1,0 -3,-3 0,0 -2,-3 -2,-3 -2,-4 -2,-3 -3,-7l-16 -28c0,0 0,-1 -1,-1 0,0 -1,-1 -1,-1 -10,-13 -19,-14 -35,-15 -3,0 -4,1 -8,0 0,0 -3,-1 -4,-1 -2,-1 -1,-1 -3,-2 -6,1 -87,-15 -91,-14 -4,1 -3,2 -3,-1 -8,2 -2,-1 -10,0 -3,0 -9,2 -12,2 -2,4 -1,4 -6,7zm239 134c0,0 1,-1 1,-1l18 -5c38,-8 102,-23 135,-28 5,-1 5,-2 8,1 2,1 1,-2 4,5l5 24c2,10 5,20 5,30 -10,5 -142,32 -144,30 -3,-1 -1,3 -4,-2 -1,-1 -3,3 -3,-6l-2 -2c-6,-6 -5,-7 -5,-10 -3,-2 -2,7 -3,-5 -3,1 -2,1 -2,-2l0 -6c-2,-2 0,2 -4,-3 0,0 -1,-2 -2,-3 -3,-5 0,-3 -5,-6 -3,1 -3,2 -2,-2 -3,-3 -1,6 -2,-4 -1,-8 -1,-2 2,-4zm534 -97c2,3 2,2 -1,3l0 9c1,4 2,3 -1,3 1,4 1,6 1,9 -1,6 1,3 -2,5 1,3 2,3 -1,2 1,3 4,6 0,5 1,3 3,6 -1,6l0 3c-1,4 1,2 -6,4l-128 26c-3,-7 -13,-52 -13,-61l151 -31c2,5 3,8 0,15zm-202 27c3,1 2,-3 4,5l10 49c0,9 0,3 -3,5 -3,5 -77,18 -93,21 -22,4 -28,10 -31,-1l-5 -24c-7,-31 -10,-32 9,-36l80 -16c9,-2 26,-7 29,-4zm191 86c2,3 3,2 -1,3 1,8 -4,31 -3,39 1,4 3,3 -1,3 1,3 1,1 0,4 0,0 0,1 -1,1 0,0 0,1 -1,1 1,2 3,6 -1,6 1,6 1,2 -1,4 -2,3 6,1 -4,4 -15,3 -31,6 -46,10l-41 8c-5,-1 -1,2 -3,-2 -5,-3 -14,-56 -15,-61 -2,-8 -1,-2 1,-4 1,-3 -5,-1 3,-3 15,-3 106,-24 113,-22 1,6 1,3 -1,4 1,2 3,6 0,6zm-337 61c0,0 1,1 1,1 0,0 1,1 1,1l4 16c1,6 2,12 3,18l6 27c1,6 1,3 -1,7 -4,4 -94,23 -100,21 -4,2 -3,3 -3,-1 -3,2 -2,2 -2,-2 -1,-1 -4,-6 -6,-8 0,0 -5,-2 -3,-6 0,0 -5,4 -3,-6 -3,2 -2,2 -2,-2 0,0 -1,0 -3,-3 0,0 -1,-2 -2,-2 -2,-5 -1,-3 -1,-5 0,0 -5,5 -3,-6 -3,2 -2,2 -2,-2l0 -3c-4,1 -3,2 -3,-2l-4 -4c-6,-7 -6,-8 -5,-14 1,-1 0,-1 4,-3l107 -23c21,-5 13,-3 16,0zm47 -9c-2,-3 -2,-2 2,-2 16,-2 107,-20 119,-25 3,-2 3,-3 3,1 2,3 18,63 13,70 -6,6 -50,12 -61,15l-56 12c-8,0 -2,1 -5,-1 -6,-5 -7,-25 -9,-34 -2,-10 -8,-25 -6,-33zm-23 130c3,2 1,0 3,5 1,2 1,6 2,8 1,6 11,41 7,42 -1,3 1,2 -6,4 -11,3 -51,12 -56,10 -3,2 -2,2 -2,-2l0 -5c-3,-1 -3,1 -3,-5 -3,2 -2,1 -3,-3l-17 -29c-3,1 -2,1 -2,-2 -2,-1 0,1 -3,-3 -2,-3 -1,-2 -2,-5 7,-4 50,-12 65,-15 3,-1 8,-2 11,-3 9,-1 7,0 8,2zm300 -53c2,3 2,3 -1,3 0,4 0,1 -2,3 2,3 3,3 -1,3l1 11c1,4 2,3 -2,3 1,2 4,7 -1,6 1,5 1,7 0,11 0,1 -1,4 -1,5 -1,4 0,1 -2,3 -1,3 4,2 -13,5 -5,1 -10,2 -14,3 -10,2 -21,3 -30,7 -4,2 -3,3 -3,-1 -4,-7 -8,-32 -10,-43 0,-2 -2,-6 -2,-8 -1,-7 -1,-3 1,-5 2,-3 -6,0 4,-3 14,-3 64,-15 74,-14 2,5 1,7 0,11zm-253 43c-2,-3 -2,-2 2,-2l120 -25c3,-2 3,-3 3,1 4,7 6,20 8,29 1,6 8,25 3,29 -1,2 0,1 -3,3 -1,0 -2,1 -3,1 -2,1 -6,1 -8,2 -5,1 -11,2 -16,3 -11,2 -21,4 -32,7 -11,2 -21,4 -32,7 -12,2 -26,8 -29,3 -3,-2 -1,1 -3,-5l-10 -51zm-24 303c0,4 1,1 -1,5 -2,4 -2,3 -3,4 1,3 2,3 -1,2 2,3 2,2 -2,2 -8,7 -14,14 -30,14 -6,0 -11,-2 -15,-4 -7,-4 -7,-5 -12,-9 -3,-1 -2,3 -3,-3 -4,-2 -8,-18 -5,-27 2,-6 0,0 1,-3 -2,-3 -3,-3 1,-2 -2,-3 -2,-2 1,-2 1,-6 3,-8 8,-10 -1,-2 -1,-2 1,-2 -1,-3 -2,-2 1,-2 -1,-3 2,-3 5,-3 -1,-3 3,-3 6,-5 1,0 4,-1 4,-1 3,0 1,-1 3,1 2,-1 2,-1 5,-2 9,-1 2,-1 5,1 4,-2 3,-3 3,1 8,3 15,6 19,11 3,-1 2,-1 2,2 0,0 1,0 1,1 0,1 1,1 1,1 1,2 1,2 2,4 0,0 1,0 1,1 0,1 1,1 1,1 1,2 1,2 2,4l-2 21zm217 -78c-1,-7 1,-4 2,-12l5 -1c-2,-3 -2,-2 1,-2 -2,-3 -2,-2 1,-2 -1,-3 -2,-2 1,-2 1,-1 -2,-1 5,-3 1,-1 1,-2 4,-3 4,-1 3,-1 6,-1 -1,-3 -1,-2 2,-1 8,2 -2,-5 2,1 2,-1 1,-2 5,-2 9,-1 2,-1 5,2 3,-1 -1,-2 4,0 3,1 1,0 3,2 4,0 2,-1 6,2 38,22 11,84 -35,64 -6,-3 -10,-5 -12,-10 -4,1 -3,-2 -3,-5 -2,0 -2,5 -6,-12 -2,-12 0,-11 2,-13zm-1696 -719l1 0 103 0c37,7 73,21 107,44 67,44 114,91 141,143 30,59 28,114 -5,165 -21,32 -51,52 -90,61 -39,9 -75,3 -107,-18 -31,-20 -50,-41 -56,-61 -1,-6 -1,-10 0,-12 3,-5 10,-6 21,-2 15,4 30,3 45,-2 15,-5 30,-19 45,-42 13,-21 14,-45 0,-73 -13,-27 -33,-50 -59,-66 -49,-32 -97,-47 -145,-47l-1 0 0 -89zm785 543c-73,113 -182,173 -327,182 -136,8 -266,-28 -393,-110 -23,-15 -44,-30 -65,-45l0 0 0 -88 1 0c30,26 63,52 101,76 90,59 183,90 277,93 111,4 193,-34 246,-116 53,-81 63,-161 30,-238 -21,-48 -74,-117 -160,-209 -29,-29 -57,-58 -85,-87l206 0c61,64 106,118 137,160 46,66 74,127 81,184 9,67 -7,133 -50,199z"/>
 </g>
</svg>
